<?xml version="1.0" encoding="UTF-8" standalone="no"?>
<!-- Created with Inkscape (http://www.inkscape.org/) -->
<svg
   xmlns:dc="http://purl.org/dc/elements/1.1/"
   xmlns:cc="http://creativecommons.org/ns#"
   xmlns:rdf="http://www.w3.org/1999/02/22-rdf-syntax-ns#"
   xmlns:svg="http://www.w3.org/2000/svg"
   xmlns="http://www.w3.org/2000/svg"
   xmlns:sodipodi="http://sodipodi.sourceforge.net/DTD/sodipodi-0.dtd"
   xmlns:inkscape="http://www.inkscape.org/namespaces/inkscape"
   width="188.03999"
   height="188.03999"
   id="svg3305"
   sodipodi:version="0.32"
   inkscape:version="0.48.0 r9654"
   version="1.0"
   sodipodi:docname="cellphone.svg"
   inkscape:output_extension="org.inkscape.output.svg.inkscape">
  <defs
     id="defs3307">
    <inkscape:perspective
       sodipodi:type="inkscape:persp3d"
       inkscape:vp_x="0 : 526.18109 : 1"
       inkscape:vp_y="0 : 1000 : 0"
       inkscape:vp_z="744.09448 : 526.18109 : 1"
       inkscape:persp3d-origin="372.04724 : 350.78739 : 1"
       id="perspective3313" />
  </defs>
  <sodipodi:namedview
     id="base"
     pagecolor="#ffffff"
     bordercolor="#666666"
     borderopacity="1.0"
     inkscape:pageopacity="0.0"
     inkscape:pageshadow="2"
     inkscape:zoom="1.979899"
     inkscape:cx="18.262689"
     inkscape:cy="66.406043"
     inkscape:document-units="px"
     inkscape:current-layer="layer1"
     showgrid="false"
     inkscape:window-width="1432"
     inkscape:window-height="820"
     inkscape:window-x="0"
     inkscape:window-y="25"
     inkscape:window-maximized="0"
     fit-margin-top="0"
     fit-margin-left="0"
     fit-margin-right="0"
     fit-margin-bottom="0" />
  <metadata
     id="metadata3310">
    <rdf:RDF>
      <cc:Work
         rdf:about="">
        <dc:format>image/svg+xml</dc:format>
        <dc:type
           rdf:resource="http://purl.org/dc/dcmitype/StillImage" />
        <dc:date>2008-06-29</dc:date>
        <dc:title>no cell phone use</dc:title>
        <dc:creator>
          <cc:Agent>
            <dc:title>Torsten Skomp</dc:title>
          </cc:Agent>
        </dc:creator>
        <dc:rights>
          <cc:Agent>
            <dc:title>Torsten Skomp</dc:title>
          </cc:Agent>
        </dc:rights>
        <dc:publisher>
          <cc:Agent>
            <dc:title>Torsten Skomp</dc:title>
          </cc:Agent>
        </dc:publisher>
        <dc:language>en_US</dc:language>
        <dc:subject>
          <rdf:Bag>
            <rdf:li>cell phone no use prohibited</rdf:li>
          </rdf:Bag>
        </dc:subject>
        <cc:license
           rdf:resource="http://creativecommons.org/licenses/publicdomain/" />
      </cc:Work>
      <cc:License
         rdf:about="http://creativecommons.org/licenses/publicdomain/">
        <cc:permits
           rdf:resource="http://creativecommons.org/ns#Reproduction" />
        <cc:permits
           rdf:resource="http://creativecommons.org/ns#Distribution" />
        <cc:permits
           rdf:resource="http://creativecommons.org/ns#DerivativeWorks" />
      </cc:License>
    </rdf:RDF>
  </metadata>
  <g
     inkscape:label="Ebene 1"
     inkscape:groupmode="layer"
     id="layer1"
     transform="translate(873.91733,1155.4502)">
    <path
       inkscape:connector-curvature="0"
       style="fill:#000000;fill-opacity:0.99227798;fill-rule:nonzero;stroke:none;stroke-width:1;marker:none;visibility:visible;display:inline;overflow:visible;enable-background:accumulate"
       d="m -747.06606,-1155.4469 c -4.13237,0 -7.45518,3.3228 -7.45518,7.4552 l 0,9.8224 -59.99642,0 c -8.28408,0 -14.95296,6.6689 -14.95296,14.953 l 0,140.85311 c 0,8.28408 6.66887,14.95296 14.95296,14.95296 l 66.50017,0 c 8.28408,0 14.95294,-6.66889 14.95296,-14.95296 l 0,-140.85311 c 0,-5.159 -2.59412,-9.6829 -6.54636,-12.3685 l 0,-12.4069 c 0,-4.1324 -3.32281,-7.4552 -7.45517,-7.4552 z m -61.79988,32.33 55.19673,0 c 3.32925,0 6.00673,2.8429 6.00673,6.3759 l 0,40.826 c 0,3.533 -2.67748,6.3759 -6.00673,6.3759 l -55.19673,0 c -3.32925,0 -6.00673,-2.8429 -6.00673,-6.3759 l 0,-40.826 c 0,-3.533 2.67748,-6.3759 6.00673,-6.3759 z m -0.90881,74.0547 13.36252,0 c 0.80576,0 1.44843,0.5105 1.44843,1.1503 l 0,8.7758 c 10e-6,0.6397 -0.64267,1.1644 -1.44843,1.1644 l -13.36252,0 c -0.80577,0 -1.46264,-0.5247 -1.46264,-1.1644 l 0,-8.7758 c 0,-0.6398 0.65688,-1.1503 1.46264,-1.1503 z m 21.82592,0 13.36251,0 c 0.80577,0 1.44844,0.5105 1.44844,1.1503 l 0,8.7758 c 10e-6,0.6397 -0.64267,1.1644 -1.44844,1.1644 l -13.36251,0 c -0.80577,0 -1.44844,-0.5247 -1.44844,-1.1644 l 0,-8.7758 c 0,-0.6398 0.64267,-1.1503 1.44844,-1.1503 z m 21.82591,0 13.36252,0 c 0.80576,0 1.46264,0.5105 1.46264,1.1503 l 0,8.7758 c 1e-5,0.6397 -0.65688,1.1644 -1.46264,1.1644 l -13.36252,0 c -0.80577,0 -1.44843,-0.5247 -1.44843,-1.1644 l 0,-8.7758 c 0,-0.6398 0.64267,-1.1503 1.44843,-1.1503 z m -43.65183,16.2878 13.36252,0 c 0.80576,0 1.44843,0.5105 1.44843,1.1503 l 0,8.7758 c 10e-6,0.6397 -0.64267,1.1502 -1.44843,1.1502 l -13.36252,0 c -0.80577,0 -1.46264,-0.5105 -1.46264,-1.1502 l 0,-8.7758 c 0,-0.6398 0.65688,-1.1503 1.46264,-1.1503 z m 21.82592,0 13.36251,0 c 0.80577,0 1.44844,0.5105 1.44844,1.1503 l 0,8.7758 c 10e-6,0.6397 -0.64267,1.1502 -1.44844,1.1502 l -13.36251,0 c -0.80577,0 -1.44844,-0.5105 -1.44844,-1.1502 l 0,-8.7758 c 0,-0.6398 0.64267,-1.1503 1.44844,-1.1503 z m 21.82591,0 13.36252,0 c 0.80576,0 1.46264,0.5105 1.46264,1.1503 l 0,8.7758 c 1e-5,0.6397 -0.65688,1.1502 -1.46264,1.1502 l -13.36252,0 c -0.80577,0 -1.44843,-0.5105 -1.44843,-1.1502 l 0,-8.7758 c 0,-0.6398 0.64267,-1.1503 1.44843,-1.1503 z m -43.65183,16.2736 13.36252,0 c 0.80576,0 1.44843,0.5246 1.44843,1.1644 l 0,8.7758 c 10e-6,0.6398 -0.64267,1.1503 -1.44843,1.1503 l -13.36252,0 c -0.80577,0 -1.46264,-0.5105 -1.46264,-1.1503 l 0,-8.7758 c 0,-0.6397 0.65688,-1.1644 1.46264,-1.1644 z m 21.82592,0 13.36251,0 c 0.80577,0 1.44844,0.5246 1.44844,1.1644 l 0,8.7758 c 10e-6,0.6398 -0.64267,1.1503 -1.44844,1.1503 l -13.36251,0 c -0.80577,0 -1.44844,-0.5105 -1.44844,-1.1503 l 0,-8.7758 c 0,-0.6397 0.64267,-1.1644 1.44844,-1.1644 z m 21.82591,0 13.36252,0 c 0.80576,0 1.46264,0.5246 1.46264,1.1644 l 0,8.7758 c 1e-5,0.6398 -0.65688,1.1503 -1.46264,1.1503 l -13.36252,0 c -0.80577,0 -1.44843,-0.5105 -1.44843,-1.1503 l 0,-8.7758 c 0,-0.6397 0.64267,-1.1644 1.44843,-1.1644 z m -43.65183,16.2878 13.36252,0 c 0.80576,0 1.44843,0.51044 1.44843,1.15021 l 0,8.77581 c 10e-6,0.63978 -0.64267,1.16442 -1.44843,1.16442 l -13.36252,0 c -0.80577,2e-5 -1.46264,-0.52464 -1.46264,-1.16442 l 0,-8.77581 c 0,-0.63977 0.65688,-1.15021 1.46264,-1.15021 z m 21.82592,0 13.36251,0 c 0.80577,0 1.44844,0.51044 1.44844,1.15021 l 0,8.77581 c 10e-6,0.63978 -0.64267,1.16442 -1.44844,1.16442 l -13.36251,0 c -0.80577,2e-5 -1.44844,-0.52464 -1.44844,-1.16442 l 0,-8.77581 c 0,-0.63977 0.64267,-1.15021 1.44844,-1.15021 z m 21.82591,0 13.36252,0 c 0.80576,0 1.46264,0.51044 1.46264,1.15021 l 0,8.77581 c 1e-5,0.63978 -0.65688,1.16442 -1.46264,1.16442 l -13.36252,0 c -0.80577,2e-5 -1.44843,-0.52464 -1.44843,-1.16442 l 0,-8.77581 c 0,-0.63977 0.64267,-1.15021 1.44843,-1.15021 z"
       id="rect2419"
       sodipodi:nodetypes="cccccccccccccccccccccccccccccccccccccccccccccccccccccccccccccccccccccccccccccccccccccccccccccccccccccccccccccccccccccccccccccccccc" />
  </g>
</svg>
