<?xml version="1.0" encoding="UTF-8"?>
<svg viewBox="0 0 490 460" width="490" height="460" 
     xmlns:xlink="http://www.w3.org/1999/xlink" 
     xmlns="http://www.w3.org/2000/svg">
    <rect width="490" height="460" fill="#553000"/>
    <g>
      <text id="match_length" font-family="Verdana"
            font-size="12px" text-anchor="start"
            x="10" y="15" fill="#ffd020">Match length: 7</text>
      <text id="game_info" font-family="Verdana"
            font-size="12px" text-anchor="end"
            x="480" y="15" fill="#ffd020">Post Crawford game</text>
      <text id="score2" font-family="Verdana"
            font-size="12px" text-anchor="start"
            x="10" y="35" fill="#ffd020">Score: 3 (4-away)</text>
      <text id="pip2" font-family="Verdana"
            font-size="12px" text-anchor="middle"
            x="245" y="35" fill="#ffd020">Pips: 167</text>
      <text id="player2" font-family="Verdana" font-weight="bold"
            font-size="12px" text-anchor="end"
            x="480" y="35" fill="#ffd020">She</text>
    </g>

    <g transform="translate(0, 420)">
      <text id="score1" font-family="Verdana"
            font-size="12px" text-anchor="start"
            x="10" y="15" fill="#ffd020">Score: 6 (1-away)</text>
      <text id="pip1" font-family="Verdana"
            font-size="12px" text-anchor="middle"
            x="245" y="15" fill="#ffd020">Pips: 167</text>
      <text id="player1" font-family="Verdana" font-weight="bold"
            font-size="12px" text-anchor="end"
            x="480" y="15" fill="#ffd020">You</text>
      <text id="status-bar" font-family="Verdana"
            font-size="12px" text-anchor="middle"
            x="245" y="35" fill="#ffd020">It's your turn to roll the dice</text>
    </g>

    <g transform="translate(0, 40)">
        <!-- Frame, covering the inner board.  -->
        <rect width="490" height="380" fill="#332600"/>
	<!-- Left home compartments.  -->
	<rect height="150" width="30" y="10" x="10" fill="#664000"/>
	<rect height="150" width="30" y="220" x="10" fill="#664000"/>
	<!-- (Right) home compartments.  -->
	<rect height="150" width="30" y="10" x="450" fill="#664000"/>
	<rect height="150" width="30" y="220" x="450" fill="#664000"/>
	<!-- Left board.  -->
	<rect height="360" width="180" y="10" x="50" fill="#664000"/>
	<!-- Right board.  -->
	<rect height="360" width="180" y="10" x="260" fill="#664000"/>
	<!-- Points.  -->
        <text id="text13" font-family="Verdana"
              font-size="8px" text-anchor="middle"
              x="65" y="8" fill="#ffd020">13</text>
	<polygon points=" 50,10  80,10  65,160" fill="#900000"/>
        <text id="text14" font-family="Verdana"
              font-size="8px" text-anchor="middle"
              x="95" y="8" fill="#ffd020">14</text>
	<polygon points=" 80,10 110,10  95,160" fill="#7f7f7f"/>
        <text id="text15" font-family="Verdana"
              font-size="8px" text-anchor="middle"
              x="125" y="8" fill="#ffd020">15</text>
	<polygon points="110,10 140,10 125,160" fill="#900000"/>
        <text id="text16" font-family="Verdana"
              font-size="8px" text-anchor="middle"
              x="155" y="8" fill="#ffd020">16</text>
	<polygon points="140,10 170,10 155,160" fill="#7f7f7f"/>
        <text id="text17" font-family="Verdana"
              font-size="8px" text-anchor="middle"
              x="185" y="8" fill="#ffd020">17</text>
	<polygon points="170,10 200,10 185,160" fill="#900000"/>
        <text id="text18" font-family="Verdana"
              font-size="8px" text-anchor="middle"
              x="215" y="8" fill="#ffd020">18</text>
	<polygon points="200,10 230,10 215,160" fill="#7f7f7f"/>
        <text id="text19" font-family="Verdana"
              font-size="8px" text-anchor="middle"
              x="275" y="8" fill="#ffd020">19</text>
	<polygon points="260,10 290,10 275,160" fill="#900000"/>
        <text id="text20" font-family="Verdana"
              font-size="8px" text-anchor="middle"
              x="305" y="8" fill="#ffd020">20</text>
	<polygon points="290,10 320,10 305,160" fill="#7f7f7f"/>
        <text id="text21" font-family="Verdana"
              font-size="8px" text-anchor="middle"
              x="335" y="8" fill="#ffd020">21</text>
	<polygon points="320,10 350,10 335,160" fill="#900000"/>
        <text id="text22" font-family="Verdana"
              font-size="8px" text-anchor="middle"
              x="365" y="8" fill="#ffd020">22</text>
	<polygon points="350,10 380,10 365,160" fill="#7f7f7f"/>
        <text id="text23" font-family="Verdana"
              font-size="8px" text-anchor="middle"
              x="395" y="8" fill="#ffd020">23</text>
	<polygon points="380,10 410,10 395,160" fill="#900000"/>
        <text id="text24" font-family="Verdana"
              font-size="8px" text-anchor="middle"
              x="425" y="8" fill="#ffd020">24</text>
	<polygon points="410,10 440,10 425,160" fill="#7f7f7f" id="point24"/>
        <text id="text12" font-family="Verdana"
              font-size="8px" text-anchor="middle"
              dominant-baseline="hanging"
              x="65" y="372" fill="#ffd020">12</text>
	<polygon points=" 50,370  80,370  65,220" fill="#7f7f7f" id="point12"/>
        <text id="text11" font-family="Verdana"
              font-size="8px" text-anchor="middle"
              dominant-baseline="hanging"
              x="95" y="372" fill="#ffd020">11</text>
	<polygon points=" 80,370 110,370  95,220" fill="#900000"/>
        <text id="text10" font-family="Verdana"
              font-size="8px" text-anchor="middle"
              dominant-baseline="hanging"
              x="125" y="372" fill="#ffd020">10</text>
	<polygon points="110,370 140,370 125,220" fill="#7f7f7f"/>
        <text id="text9" font-family="Verdana"
              font-size="8px" text-anchor="middle"
              dominant-baseline="hanging"
              x="155" y="372" fill="#ffd020">9</text>
	<polygon points="140,370 170,370 155,220" fill="#900000"/>
        <text id="text8" font-family="Verdana"
              font-size="8px" text-anchor="middle"
              dominant-baseline="hanging"
              x="185" y="372" fill="#ffd020">8</text>
	<polygon points="170,370 200,370 185,220" fill="#7f7f7f"/>
        <text id="text7" font-family="Verdana"
              font-size="8px" text-anchor="middle"
              dominant-baseline="hanging"
              x="215" y="372" fill="#ffd020">7</text>
	<polygon points="200,370 230,370 215,220" fill="#900000"/>
        <text id="text6" font-family="Verdana"
              font-size="8px" text-anchor="middle"
              dominant-baseline="hanging"
              x="275" y="372" fill="#ffd020">6</text>
	<polygon points="260,370 290,370 275,220" fill="#7f7f7f"/>
        <text id="text5" font-family="Verdana"
              font-size="8px" text-anchor="middle"
              dominant-baseline="hanging"
              x="305" y="372" fill="#ffd020">5</text>
	<polygon points="290,370 320,370 305,220" fill="#900000"/>
        <text id="text4" font-family="Verdana"
              font-size="8px" text-anchor="middle"
              dominant-baseline="hanging"
              x="335" y="372" fill="#ffd020">4</text>
	<polygon points="320,370 350,370 335,220" fill="#7f7f7f"/>
        <text id="text3" font-family="Verdana"
              font-size="8px" text-anchor="middle"
              dominant-baseline="hanging"
              x="365" y="372" fill="#ffd020">3</text>
	<polygon points="350,370 380,370 365,220" fill="#900000"/>
        <text id="text2" font-family="Verdana"
              font-size="8px" text-anchor="middle"
              dominant-baseline="hanging"
              x="395" y="372" fill="#ffd020">2</text>
	<polygon points="380,370 410,370 395,220" fill="#7f7f7f"/>
        <text id="text1" font-family="Verdana"
              font-size="8px" text-anchor="middle"
              dominant-baseline="hanging"
              x="425" y="372" fill="#ffd020">1</text>
	<polygon points="410,370 440,370 425,220" fill="#900000" id="point1"/>

        <g id="checker_b_flat">
	    <circle stroke="#444444" stroke-width="1" fill="#111111" r="15" cy="25" cx="425"/>
        </g>
        <g id="checker_b_home">
            <rect stroke="#444444" stroke-width="1" fill="#111111"
                  rx="2" ry="2" x="450" y="10" height="10" width="30"/>
        </g>
        
        <g id="checker_w_flat">
	    <circle stroke="#aaaaaa" stroke-width="1" fill="#dddddd" r="15" cy="355" cx="65"/>
        </g>
        <g id="checker_w_home">
            <rect stroke="#aaaaaa" stroke-width="1" fill="#dddddd"
                  rx="2" ry="2" x="450" y="360" height="10" width="30"/>
        </g>

        <g id="die_w_1">
            <rect stroke="#aaaaaa" stroke-width="1" fill="#dddddd" ry="3" rx="3" height="20" width="20" y="180" x="55"/>
            <circle stroke="#444444" stroke-width="1" fill="#111111" r="1.8" cy="190" cx="65"/>
        </g>
        <g id="die_w_2">
            <rect stroke="#aaaaaa" stroke-width="1" fill="#dddddd" ry="3" rx="3" height="20" width="20" y="180" x="80"/>
            <circle stroke="#444444" stroke-width="1" fill="#111111" r="1.8" cy="195" cx="85"/>
            <circle stroke="#444444" stroke-width="1" fill="#111111" r="1.8" cy="185" cx="95"/>
        </g>
        <g id="die_w_3">
            <rect stroke="#aaaaaa" stroke-width="1" fill="#dddddd" ry="3" rx="3" height="20" width="20" y="180" x="105"/>
            <circle stroke="#444444" stroke-width="1" fill="#111111" r="1.8" cy="195" cx="110"/>
            <circle stroke="#444444" stroke-width="1" fill="#111111" r="1.8" cy="190" cx="115"/>
            <circle stroke="#444444" stroke-width="1" fill="#111111" r="1.8" cy="185" cx="120"/>
        </g>
        <g id="die_w_4">
            <rect stroke="#aaaaaa" stroke-width="1" fill="#dddddd" ry="3" rx="3" height="20" width="20" y="180" x="130"/>
            <circle stroke="#444444" stroke-width="1" fill="#111111" r="1.8" cy="195" cx="135"/>
            <circle stroke="#444444" stroke-width="1" fill="#111111" r="1.8" cy="195" cx="145"/>
            <circle stroke="#444444" stroke-width="1" fill="#111111" r="1.8" cy="185" cx="135"/>
            <circle stroke="#444444" stroke-width="1" fill="#111111" r="1.8" cy="185" cx="145"/>
        </g>
        <g id="die_w_5">
            <rect stroke="#aaaaaa" stroke-width="1" fill="#dddddd" ry="3" rx="3" height="20" width="20" y="180" x="155"/>
            <circle stroke="#444444" stroke-width="1" fill="#111111" r="1.8" cy="195" cx="160"/>
            <circle stroke="#444444" stroke-width="1" fill="#111111" r="1.8" cy="195" cx="170"/>
            <circle stroke="#444444" stroke-width="1" fill="#111111" r="1.8" cy="190" cx="165"/>
            <circle stroke="#444444" stroke-width="1" fill="#111111" r="1.8" cy="185" cx="160"/>
            <circle stroke="#444444" stroke-width="1" fill="#111111" r="1.8" cy="185" cx="170"/>
        </g>
        <g id="die_w_6">
            <rect stroke="#aaaaaa" stroke-width="1" fill="#dddddd" ry="3" rx="3" height="20" width="20" y="180" x="180"/>
            <circle stroke="#444444" stroke-width="1" fill="#111111" r="1.8" cy="195" cx="185"/>
            <circle stroke="#444444" stroke-width="1" fill="#111111" r="1.8" cy="195" cx="195"/>
            <circle stroke="#444444" stroke-width="1" fill="#111111" r="1.8" cy="190" cx="185"/>
            <circle stroke="#444444" stroke-width="1" fill="#111111" r="1.8" cy="190" cx="195"/>
            <circle stroke="#444444" stroke-width="1" fill="#111111" r="1.8" cy="185" cx="185"/>
            <circle stroke="#444444" stroke-width="1" fill="#111111" r="1.8" cy="185" cx="195"/>
        </g>

        <g id="die_b_1">
            <rect stroke="#444444" stroke-width="1" fill="#111111" ry="3" rx="3" height="20" width="20" y="180" x="265"/>
            <circle stroke="#aaaaaa" stroke-width="1" fill="#dddddd" r="1.8" cy="190" cx="275"/>
        </g>
        <g id="die_b_2">
            <rect stroke="#444444" stroke-width="1" fill="#111111" ry="3" rx="3" height="20" width="20" y="180" x="290"/>
            <circle stroke="#aaaaaa" stroke-width="1" fill="#dddddd" r="1.8" cy="195" cx="295"/>
            <circle stroke="#aaaaaa" stroke-width="1" fill="#dddddd" r="1.8" cy="185" cx="305"/>
        </g>
        <g id="die_b_3">
            <rect stroke="#444444" stroke-width="1" fill="#111111" ry="3" rx="3" height="20" width="20" y="180" x="315"/>
            <circle stroke="#aaaaaa" stroke-width="1" fill="#dddddd" r="1.8" cy="195" cx="320"/>
            <circle stroke="#aaaaaa" stroke-width="1" fill="#dddddd" r="1.8" cy="190" cx="325"/>
            <circle stroke="#aaaaaa" stroke-width="1" fill="#dddddd" r="1.8" cy="185" cx="330"/>
        </g>
        <g id="die_b_4">
            <rect stroke="#444444" stroke-width="1" fill="#111111" ry="3" rx="3" height="20" width="20" y="180" x="340"/>
            <circle stroke="#aaaaaa" stroke-width="1" fill="#dddddd" r="1.8" cy="195" cx="345"/>
            <circle stroke="#aaaaaa" stroke-width="1" fill="#dddddd" r="1.8" cy="195" cx="355"/>
            <circle stroke="#aaaaaa" stroke-width="1" fill="#dddddd" r="1.8" cy="185" cx="345"/>
            <circle stroke="#aaaaaa" stroke-width="1" fill="#dddddd" r="1.8" cy="185" cx="355"/>
        </g>
        <g id="die_b_5">
            <rect stroke="#444444" stroke-width="1" fill="#111111" ry="3" rx="3" height="20" width="20" y="180" x="365"/>
            <circle stroke="#aaaaaa" stroke-width="1" fill="#dddddd" r="1.8" cy="195" cx="370"/>
            <circle stroke="#aaaaaa" stroke-width="1" fill="#dddddd" r="1.8" cy="195" cx="380"/>
            <circle stroke="#aaaaaa" stroke-width="1" fill="#dddddd" r="1.8" cy="190" cx="375"/>
            <circle stroke="#aaaaaa" stroke-width="1" fill="#dddddd" r="1.8" cy="185" cx="370"/>
            <circle stroke="#aaaaaa" stroke-width="1" fill="#dddddd" r="1.8" cy="185" cx="380"/>
        </g>
        <g id="die_b_6">
            <rect stroke="#444444" stroke-width="1" fill="#111111" ry="3" rx="3" height="20" width="20" y="180" x="390"/>
            <circle stroke="#aaaaaa" stroke-width="1" fill="#dddddd" r="1.8" cy="195" cx="395"/>
            <circle stroke="#aaaaaa" stroke-width="1" fill="#dddddd" r="1.8" cy="195" cx="405"/>
            <circle stroke="#aaaaaa" stroke-width="1" fill="#dddddd" r="1.8" cy="190" cx="395"/>
            <circle stroke="#aaaaaa" stroke-width="1" fill="#dddddd" r="1.8" cy="190" cx="405"/>
            <circle stroke="#aaaaaa" stroke-width="1" fill="#dddddd" r="1.8" cy="185" cx="395"/>
            <circle stroke="#aaaaaa" stroke-width="1" fill="#dddddd" r="1.8" cy="185" cx="405"/>
        </g>
        <g id="cube">
            <rect stroke="#aaaaaa" stroke-width="1" fill="#dddddd"
                  rx="3" ry="3" width="30" height="30"
                  x="10" y="175"/>
            <text x="25" y="190" id="cube-value"
                  text-anchor="middle"
                  font-size="20px"
                  color="111111"
                  font-family="Arial"
                  font-weight="bold"
                  dominant-baseline="central"
                  >1</text>
        </g>
        <g id="flag">
            <rect stroke="#aaaaaa" stroke-width="1" fill="#dddddd"
                  rx="1" ry="1" width="40" height="30"
                  x="210" y="175"/>
            <rect stroke="#222222" stroke-width="1" fill="#332200"
                  rx="1" ry="1"  width="5" height="65"
                  x="205" y="170"/>
            <text x="230" y="190" id="flag-value"
                  text-anchor="middle"
                  font-size="20px"
                  color="111111"
                  font-family="Arial"
                  font-weight="bold"
                  dominant-baseline="central"
                  >1</text>
        </g>
        <g id="cup">
	    <polygon points="335,210 330,170 370,170 365,210" fill="#221100"/>
            <ellipse fill="#221100"
                     cx="350" cy="210" rx="15" ry="4"/>
            <ellipse fill="#332200"
                     cx="350" cy="170" rx="20" ry="4"/>
            <ellipse fill="#600000"
                     cx="350" cy="170" rx="18" ry="3"/>
        </g>
    </g>
</svg>
